<svg id="Group_19324" data-name="Group 19324" xmlns="http://www.w3.org/2000/svg" width="20" height="19.959" viewBox="0 0 20 19.959">
  <path id="Path_4845" data-name="Path 4845" d="M4.315,9.941c1.839,0,3.677,0,5.516.02a5.532,5.532,0,0,1-5.535,5.516v2.768A10.062,10.062,0,0,1-.114,10.929,9.942,9.942,0,0,1,2.5,3.16,10.165,10.165,0,0,1,10.562,0,11.106,11.106,0,0,0,5.481,5.038,10.909,10.909,0,0,0,4.315,9.941Z" transform="translate(0.166 0.029)" fill="#1ee8b7"/>
  <path id="Path_4846" data-name="Path 4846" d="M54.154,24.156A10.031,10.031,0,0,1,46.8,26.667a11.066,11.066,0,0,0,5.377-5.674,11.289,11.289,0,0,0,.87-4.27H47.531a5.494,5.494,0,0,1,1.8-4.072,5.679,5.679,0,0,1,3.736-1.463V8.4A9.925,9.925,0,0,1,57.5,16.07,10.034,10.034,0,0,1,54.154,24.156Z" transform="translate(-37.515 -6.734)" fill="#1ee8b7"/>
</svg>
