<svg xmlns="http://www.w3.org/2000/svg" width="40" height="40" viewBox="0 0 40 40">
  <g id="Group_19331" data-name="Group 19331" transform="translate(-168 -742)">
    <circle id="Ellipse_9" data-name="Ellipse 9" cx="20" cy="20" r="20" transform="translate(168 742)" fill="#fff"/>
    <g id="vuesax_bold_trade" data-name="vuesax/bold/trade" transform="translate(4 562)">
      <g id="trade">
        <path id="Vector" d="M0,0H24V24H0Z" transform="translate(172 188)" fill="none" opacity="0"/>
        <path id="Vector-2" data-name="Vector" d="M13,6.5A6.5,6.5,0,1,1,6.5,0c.17,0,.35.01.52.02a6.509,6.509,0,0,1,5.96,5.96C12.99,6.15,13,6.33,13,6.5Z" transform="translate(174 197)"/>
        <path id="Vector-3" data-name="Vector" d="M12.92,6.5A6.5,6.5,0,0,1,7.4,12.92v-.06A8.064,8.064,0,0,0,.03,5.52H0a6.5,6.5,0,0,1,12.92.98Z" transform="translate(181.08 190)"/>
        <path id="Vector-4" data-name="Vector" d="M3.59,0H1A1,1,0,0,0,0,1V3.59a1,1,0,0,0,1.71.71L4.3,1.71A1,1,0,0,0,3.59,0Z" transform="translate(174 190)"/>
        <path id="Vector-5" data-name="Vector" d="M1,4.594H3.59a1,1,0,0,0,1-1V1A1,1,0,0,0,2.88.294L.29,2.884A1,1,0,0,0,1,4.594Z" transform="translate(189.41 205.406)"/>
      </g>
    </g>
  </g>
</svg>
