<svg xmlns="http://www.w3.org/2000/svg" width="20" height="20" viewBox="0 0 20 20">
  <g id="vuesax_bold_wallet-3" data-name="vuesax/bold/wallet-3" transform="translate(-364 -380)">
    <g id="wallet-3" transform="translate(364 380)">
      <path id="Vector" d="M0,0H20V20H0Z" transform="translate(20 20) rotate(180)" fill="#fff" opacity="0"/>
      <path id="Vector-2" data-name="Vector" d="M4.274.85V2.567a.855.855,0,0,1-.858.85H1.808a1.777,1.777,0,0,1-1.8-1.558A1.674,1.674,0,0,1,.508.5a1.661,1.661,0,0,1,1.2-.5H3.416A.855.855,0,0,1,4.274.85Z" transform="translate(14.059 9.667)" fill="#fff"/>
      <path id="Vector-3" data-name="Vector" d="M11.15,6.508a2.949,2.949,0,0,1,.875-2.358A2.9,2.9,0,0,1,14.1,3.292h.475a.381.381,0,0,0,.392-.425A3.34,3.34,0,0,0,11.667,0H3.333A3.332,3.332,0,0,0,0,3.333V9.167A3.332,3.332,0,0,0,3.333,12.5h8.333a3.334,3.334,0,0,0,3.3-2.867.381.381,0,0,0-.392-.425H14.2A3.031,3.031,0,0,1,11.15,6.508ZM9.167,4.792h-5a.625.625,0,1,1,0-1.25h5a.625.625,0,0,1,0,1.25Z" transform="translate(1.667 5.125)" fill="#fff"/>
      <path id="Vector-4" data-name="Vector" d="M9.925.942a.337.337,0,0,1-.292.558H3.108a4.533,4.533,0,0,0-2.467.725c-.325.208-.767-.017-.608-.375A3.062,3.062,0,0,1,2.85,0H7.533A3.251,3.251,0,0,1,9.925.942Z" transform="translate(1.917 2.375)" fill="#fff"/>
    </g>
  </g>
</svg>
