<svg xmlns="http://www.w3.org/2000/svg" width="20" height="20" viewBox="0 0 20 20">
  <g id="vuesax_bold_refresh-circle" data-name="vuesax/bold/refresh-circle" transform="translate(-684 -508)">
    <g id="refresh-circle" transform="translate(684 508)">
      <path id="Vector" d="M0,0H20V20H0Z" transform="translate(20 20) rotate(180)" fill="#fff" opacity="0"/>
      <path id="Vector-2" data-name="Vector" d="M8.333,0a8.333,8.333,0,1,0,8.333,8.333A8.336,8.336,0,0,0,8.333,0Zm-4.5,7.692a4.518,4.518,0,0,1,7.35-2.883V4.017a.625.625,0,0,1,1.25,0V6.242a.63.63,0,0,1-.625.625H9.583a.625.625,0,0,1,0-1.25h.625a3.29,3.29,0,0,0-5.15,2.25.62.62,0,0,1-.617.533.342.342,0,0,1-.092-.008A.616.616,0,0,1,3.833,7.692Zm7.725,3.867a4.522,4.522,0,0,1-6.083.3v.783a.625.625,0,1,1-1.25,0V10.417a.63.63,0,0,1,.625-.625H7.075a.625.625,0,0,1,0,1.25H6.45a3.29,3.29,0,0,0,5.15-2.25.624.624,0,0,1,.708-.533.634.634,0,0,1,.533.708A4.571,4.571,0,0,1,11.558,11.558Z" transform="translate(1.667 1.667)" fill="#fff"/>
    </g>
  </g>
</svg>
