<svg id="vuesax_bold_repeat-circle" data-name="vuesax/bold/repeat-circle" xmlns="http://www.w3.org/2000/svg" width="30" height="30" viewBox="0 0 30 30">
  <g id="repeat-circle" transform="translate(0 0)">
    <path id="Vector" d="M30,30H0V0H30Z" fill="none" opacity="0"/>
    <path id="Vector-2" data-name="Vector" d="M12.5,0A12.5,12.5,0,1,0,25,12.5,12.5,12.5,0,0,0,12.5,0Zm6.488,17.425a.97.97,0,0,1-.2.3l-2.113,2.112a.936.936,0,0,1-1.325,0,.943.943,0,0,1,0-1.325L15.862,18H8.875a2.942,2.942,0,0,1-2.937-2.938V12.85a.938.938,0,1,1,1.875,0v2.212a1.062,1.062,0,0,0,1.062,1.062h6.987l-.512-.512a.937.937,0,0,1,1.325-1.325L18.788,16.4a.97.97,0,0,1,.2.3A.913.913,0,0,1,18.988,17.425Zm.075-5.275a.938.938,0,0,1-1.875,0V9.937a1.062,1.062,0,0,0-1.063-1.062H9.137l.513.5a.943.943,0,0,1,0,1.325.936.936,0,0,1-1.325,0L6.212,8.587a.97.97,0,0,1-.2-.3.884.884,0,0,1,0-.713,1.027,1.027,0,0,1,.2-.313L8.325,5.15A.937.937,0,1,1,9.65,6.475l-.513.513h6.987a2.942,2.942,0,0,1,2.938,2.937Z" transform="translate(2.5 2.5)" fill="#1ee8b7"/>
  </g>
</svg>
