<svg id="Group_19306" data-name="Group 19306" xmlns="http://www.w3.org/2000/svg" width="30" height="30" viewBox="0 0 30 30">
  <rect id="Rectangle_6323" data-name="Rectangle 6323" width="30" height="30" transform="translate(0 0)" fill="none"/>
  <g id="Group_19294" data-name="Group 19294" transform="translate(1.2 1.2)">
    <path id="Path_4839" data-name="Path 4839" d="M353.978,35.753c.055.024.108.052.164.07a1.651,1.651,0,0,1,.024,3.149l-.188.065v1.475c.632.094,1.252.148,1.853.28a11.069,11.069,0,0,1,6.442,4.154,12.25,12.25,0,0,1,2.68,7.692c.007,1.082.026,2.169-.053,3.247a6.764,6.764,0,0,1-4.4,6.071,13.832,13.832,0,0,1-4.655,1.015,30.686,30.686,0,0,1-4.948-.049A11.935,11.935,0,0,1,345.58,61.3a6.394,6.394,0,0,1-3.092-4.857,20.7,20.7,0,0,1,.092-6.023,12.185,12.185,0,0,1,3.9-7.009,10.629,10.629,0,0,1,5.242-2.668c.521-.1,1.053-.148,1.6-.223v-1.5A1.661,1.661,0,0,1,352.1,37.95a1.644,1.644,0,0,1,.971-2.09c.089-.034.176-.071.263-.107Zm8.124,16.54c-.024-.336-.038-.673-.074-1.008a8.393,8.393,0,0,0-7.634-7.608,8.076,8.076,0,0,0-6.577,2.335,8.735,8.735,0,0,0-2.57,7.016,3.865,3.865,0,0,0,4.844,3.6,6.139,6.139,0,0,0,1.433-.617A4.336,4.336,0,0,1,355,55.674a9.674,9.674,0,0,1,1.365.65,3.937,3.937,0,0,0,5.05-1.286A4.683,4.683,0,0,0,362.1,52.293Zm-7.166,6.472a1.277,1.277,0,1,0-1.258,1.283A1.282,1.282,0,0,0,354.935,58.764Z" transform="translate(-340.099 -35.753)" fill="#1ee8b7"/>
    <path id="Path_4840" data-name="Path 4840" d="M338.622,60.17c.1-.9.147-1.8.306-2.69a3.031,3.031,0,0,1,1.684-2.173c.158-.084.341-.158.455.007a.543.543,0,0,1,.053.433,12.531,12.531,0,0,0-.786,3.246c-.055.591-.081,1.186-.081,1.78,0,.994.029,1.987.05,2.98,0,.177,0,.342-.19.427s-.319-.03-.446-.146a3,3,0,0,1-.958-2.1c-.037-.583-.007-1.17-.007-1.755Z" transform="translate(-338.622 -43.538)" fill="#1ee8b7"/>
    <path id="Path_4841" data-name="Path 4841" d="M382.133,60.038a12.155,12.155,0,0,1-.181,2.549,2.843,2.843,0,0,1-.836,1.454c-.131.122-.26.255-.465.165s-.193-.27-.189-.453c.019-1.144.049-2.288.048-3.433a12.426,12.426,0,0,0-.818-4.394.57.57,0,0,1-.071-.2c.007-.132,0-.319.076-.38a.455.455,0,0,1,.4-.031,3,3,0,0,1,1.735,2.189C381.99,58.34,382.038,59.193,382.133,60.038Z" transform="translate(-355.022 -43.566)" fill="#1ee8b7"/>
    <path id="Path_4842" data-name="Path 4842" d="M359.523,64.094a3.016,3.016,0,0,1-2.21-.98,1.276,1.276,0,0,1,1.817-1.792c.306.284.479.283.793-.006a1.3,1.3,0,0,1,1.786.013,1.282,1.282,0,0,1,.042,1.762A2.974,2.974,0,0,1,359.523,64.094Z" transform="translate(-345.956 -45.835)" fill="#1ee8b7"/>
    <path id="Path_4843" data-name="Path 4843" d="M355.6,56.8c0,.248.006.5,0,.745a1.276,1.276,0,0,1-2.551.006c-.014-.514-.015-1.029,0-1.543a1.275,1.275,0,0,1,2.551.02C355.61,56.284,355.6,56.54,355.6,56.8Z" transform="translate(-344.39 -43.355)" fill="#1ee8b7"/>
    <path id="Path_4844" data-name="Path 4844" d="M365.128,56.779c0-.248,0-.5,0-.745a1.275,1.275,0,0,1,2.548-.063c.023.539.024,1.082,0,1.622a1.274,1.274,0,0,1-2.547-.043C365.122,57.293,365.128,57.036,365.128,56.779Z" transform="translate(-349.223 -43.355)" fill="#1ee8b7"/>
  </g>
</svg>
