<svg xmlns="http://www.w3.org/2000/svg" width="30" height="30" viewBox="0 0 30 30">
  <g id="vuesax_bold_buy-crypto" data-name="vuesax/bold/buy-crypto" transform="translate(-236 -188)">
    <g id="buy-crypto" transform="translate(236 188)">
      <path id="Vector" d="M0,0H30V30H0Z" fill="none" opacity="0"/>
      <g id="Group_19315" data-name="Group 19315" transform="translate(-1.918 -1.918)">
        <path id="Vector-2" data-name="Vector" d="M18.628,9.372a9.364,9.364,0,0,1-7.959,9.256v-.087A11.627,11.627,0,0,0,.043,7.959H0A9.367,9.367,0,0,1,18.628,9.372Z" transform="translate(12.708 2.5)" fill="#1ee8b7"/>
        <path id="Vector-3" data-name="Vector" d="M18.715,8.622A9.385,9.385,0,0,0,10.122.029C9.876.014,9.617,0,9.372,0a9.372,9.372,0,1,0,9.372,9.372C18.744,9.127,18.729,8.867,18.715,8.622Zm-8.074,2.019L9.372,12.976,8.1,10.641,5.767,9.372,8.1,8.1,9.372,5.767,10.641,8.1l2.336,1.269Z" transform="translate(2.5 12.593)" fill="#1ee8b7"/>
      </g>
    </g>
  </g>
</svg>
